<?xml version="1.0" encoding="UTF-8" standalone="no"?>
<svg
   xmlns:dc="http://purl.org/dc/elements/1.1/"
   xmlns:cc="http://creativecommons.org/ns#"
   xmlns:rdf="http://www.w3.org/1999/02/22-rdf-syntax-ns#"
   xmlns:svg="http://www.w3.org/2000/svg"
   xmlns="http://www.w3.org/2000/svg"
   xmlns:sodipodi="http://sodipodi.sourceforge.net/DTD/sodipodi-0.dtd"
   xmlns:inkscape="http://www.inkscape.org/namespaces/inkscape"
   width="210mm"
   height="297mm"
   viewBox="0 0 210 297"
   version="1.1"
   id="svg1703"
   inkscape:version="1.0.2-2 (e86c870879, 2021-01-15)"
   sodipodi:docname="Icon.svg">
  <defs
     id="defs1697" />
  <sodipodi:namedview
     id="base"
     pagecolor="#ffffff"
     bordercolor="#666666"
     borderopacity="1.0"
     inkscape:pageopacity="0.0"
     inkscape:pageshadow="2"
     inkscape:zoom="0.35"
     inkscape:cx="400"
     inkscape:cy="674.28571"
     inkscape:document-units="mm"
     inkscape:current-layer="layer1"
     inkscape:document-rotation="0"
     showgrid="false"
     inkscape:window-width="1267"
     inkscape:window-height="728"
     inkscape:window-x="52"
     inkscape:window-y="0"
     inkscape:window-maximized="0" />
  <metadata
     id="metadata1700">
    <rdf:RDF>
      <cc:Work
         rdf:about="">
        <dc:format>image/svg+xml</dc:format>
        <dc:type
           rdf:resource="http://purl.org/dc/dcmitype/StillImage" />
        <dc:title></dc:title>
      </cc:Work>
    </rdf:RDF>
  </metadata>
  <g
     inkscape:label="Layer 1"
     inkscape:groupmode="layer"
     id="layer1">
    <g
       id="g1624"
       transform="matrix(1.4126913,0,0,1.4126913,207.91034,881.64463)">
      <path
         d="m -108.57991,-499.38135 v 3.43879 h 47.360416 v -3.43879 z"
         fill="#ffffff"
         fill-rule="evenodd"
         id="path1313"
         style="stroke-width:0.264583" />
      <path
         d="m -108.57991,-499.38135 v 3.43879 h 47.360416 v -3.43879 z"
         fill="#103440"
         fill-rule="evenodd"
         fill-opacity="0.133333"
         id="path1315"
         style="stroke-width:0.264583" />
      <path
         d="m -67.8354,-504.93839 c -1.016794,0 -1.849967,0.89323 -1.849967,1.9849 0,1.09141 0.831585,1.98385 1.849967,1.98385 h 33.338025 v -3.96875 z"
         fill="#ffffff"
         fill-rule="evenodd"
         id="path1317"
         style="stroke-width:0.264583" />
      <path
         d="m -106.30767,-505.46756 c -1.10358,0 -2.00686,0.88688 -2.00686,1.97088 v 1.08453 c 0,1.08399 0.90328,1.97088 2.00686,1.97088 h 72.484455 c 0.32808,0 0.38338,-0.68607 0.38338,-1.0295 H -67.17209 c -1.103577,0 -2.006865,-0.39925 -2.006865,-1.48325 0,-1.084 0.903288,-1.48405 2.006865,-1.48405 h 33.733845 c 0,-0.36327 -0.0976,-1.02949 -0.38338,-1.02949 z"
         fill="#e06666"
         fill-rule="evenodd"
         id="path1319"
         style="stroke-width:0.264583" />
      <path
         d="m -67.195373,-501.47209 v -0.0138 c -0.870479,-0.003 -1.600994,-0.26749 -1.869546,-0.9136 -0.0717,-0.17701 -0.109273,-0.36486 -0.109273,-0.55483 0,-1.084 0.903287,-1.48405 2.006865,-1.48405 h 33.728292 c 0,-0.36328 -0.0968,-1.02923 -0.38233,-1.02923 h -33.977523 c -1.406525,0 -2.558521,1.13056 -2.558521,2.51328 0,0.16615 0.0172,0.33258 0.0508,0.49503 h -38.007921 v 0.0336 c 0,1.08241 0.90143,1.96903 2.00501,1.96903 h 38.356115 c 0.05159,0.003 0.1016,0.0161 0.154517,0.0161 h 33.977523 c 0.32703,0 0.38233,-0.68606 0.38233,-1.02923 h -33.728292 c -0.0095,-7.9e-4 -0.01879,-0.002 -0.02805,-0.002 z"
         fill="#103440"
         fill-rule="evenodd"
         fill-opacity="0.133333"
         id="path1321"
         style="stroke-width:0.264583" />
      <path
         d="m -65.452034,-499.38135 v 3.43879 h 40.745039 v -3.43879 z"
         fill="#ffffff"
         fill-rule="evenodd"
         id="path1323"
         style="stroke-width:0.264583" />
      <path
         d="m -108.87571,-500.44048 c -0.27517,0 -0.49716,0.23627 -0.49716,0.52917 0,0.2921 0.22199,0.52837 0.49716,0.52837 h 84.729105 c 0.27437,0 0.49794,-0.23627 0.49794,-0.52837 0,-0.2929 -0.22198,-0.52917 -0.49794,-0.52917 z"
         fill="#f6b26b"
         fill-rule="evenodd"
         id="path1325"
         style="stroke-width:0.264583" />
      <path
         d="m -108.87571,-496.20635 c -0.27517,0 -0.49716,0.23601 -0.49716,0.52837 0,0.29157 0.22199,0.52837 0.49716,0.52837 h 84.729105 c 0.27437,0 0.49794,-0.2368 0.49794,-0.52837 0,-0.29157 -0.22357,-0.52837 -0.49794,-0.52837 z"
         fill="#f6b26b"
         fill-rule="evenodd"
         id="path1327"
         style="stroke-width:0.264583" />
      <path
         d="m -98.57284,-502.02798 c -2.30796,0 -4.18624,1.89918 -4.18624,4.23334 0,2.33415 1.87828,4.23253 4.18624,4.23253 1.273705,0 2.414852,-0.57917 3.183467,-1.49013 h -1.566598 c -0.487892,0.29686 -1.047221,0.4527 -1.615281,0.45429 -1.743868,0 -3.161768,-1.43536 -3.161768,-3.19669 0,-1.76213 1.4179,-3.19591 3.161768,-3.19591 0.596371,0 1.180835,0.17278 1.685396,0.49716 h 1.535112 c -0.768879,-0.93557 -1.92696,-1.53459 -3.222096,-1.53459 z"
         fill="#103440"
         fill-rule="evenodd"
         id="path1329"
         style="stroke-width:0.264583" />
      <path
         d="m -93.430663,-502.02798 c -2.225675,0 -4.035954,1.89918 -4.035954,4.23334 0,2.33415 1.810279,4.23253 4.035954,4.23253 1.228196,0 2.328598,-0.57917 3.069696,-1.49013 h -1.510506 c -0.470429,0.29686 -1.009915,0.4527 -1.557867,0.45429 -1.681427,0 -3.049323,-1.43536 -3.049323,-3.19669 0,-1.76213 1.367896,-3.19591 3.049323,-3.19591 0.575204,0 1.139032,0.17278 1.625336,0.49716 h 1.480343 c -0.741362,-0.93557 -1.858168,-1.53459 -3.107002,-1.53459 z"
         fill="#103440"
         fill-rule="evenodd"
         id="path1331"
         style="stroke-width:0.264583" />
      <path
         d="m -88.253825,-502.02798 c -2.30849,0 -4.185708,1.89918 -4.185708,4.23334 0,2.33415 1.877218,4.23253 4.185708,4.23253 1.273704,0 2.413794,-0.57917 3.182408,-1.49013 h -1.566333 c -0.487892,0.29686 -1.046427,0.4527 -1.615281,0.45429 -1.742811,0 -3.160448,-1.43536 -3.160448,-3.19669 0,-1.76213 1.417637,-3.19591 3.160448,-3.19591 0.59637,0 1.181629,0.17278 1.685925,0.49716 h 1.534318 c -0.768614,-0.93557 -1.926695,-1.53459 -3.221037,-1.53459 z"
         fill="#103440"
         fill-rule="evenodd"
         id="path1333"
         style="stroke-width:0.264583" />
      <path
         d="m -83.226742,-502.02798 c -2.308489,0 -4.185708,1.89918 -4.185708,4.23334 0,2.33415 1.877219,4.23253 4.185708,4.23253 1.273704,0 2.413794,-0.57917 3.182408,-1.49013 h -1.567127 c -0.487891,0.29686 -1.045633,0.45429 -1.615281,0.45429 -1.742017,0 -3.161242,-1.43536 -3.161242,-3.19669 0,-1.76213 1.419225,-3.19591 3.161242,-3.19591 0.597165,0 1.182423,0.17278 1.685131,0.49716 h 1.535907 c -0.768615,-0.93557 -1.925902,-1.53459 -3.221038,-1.53459 z"
         fill="#103440"
         fill-rule="evenodd"
         id="path1335"
         style="stroke-width:0.264583" />
      <path
         d="m -78.084829,-502.02798 c -2.226469,0 -4.036748,1.89918 -4.036748,4.23334 0,2.33415 1.810279,4.23253 4.036748,4.23253 1.228195,0 2.328597,-0.57917 3.069166,-1.49013 h -1.509977 c -0.470429,0.29686 -1.009914,0.4527 -1.55866,0.45429 -1.680634,0 -3.048529,-1.43536 -3.048529,-3.19669 0,-1.76213 1.367895,-3.19591 3.048529,-3.19591 0.575998,0 1.139825,0.17278 1.624541,0.49716 h 1.481932 c -0.741363,-0.93557 -1.858169,-1.53459 -3.107002,-1.53459 z"
         fill="#103440"
         fill-rule="evenodd"
         id="path1337"
         style="stroke-width:0.264583" />
      <path
         d="m -72.907727,-502.02798 c -2.307432,0 -4.185973,1.89918 -4.185973,4.23334 0,2.33415 1.878541,4.23253 4.185973,4.23253 1.273704,0 2.414322,-0.57917 3.18135,-1.49013 h -1.566334 c -0.487627,0.29686 -1.045369,0.45429 -1.615016,0.45429 -1.742546,0 -3.160184,-1.43536 -3.160184,-3.19669 0,-1.76213 1.418432,-3.19591 3.160184,-3.19591 0.597958,0 1.182422,0.17278 1.685131,0.49716 h 1.536435 c -0.768614,-0.93557 -1.928283,-1.53459 -3.221566,-1.53459 z"
         fill="#103440"
         fill-rule="evenodd"
         id="path1339"
         style="stroke-width:0.264583" />
      <path
         d="m -65.981994,-500.44048 v 1.05754 h 42.332539 v -1.05754 z"
         fill="#f6b26b"
         fill-rule="evenodd"
         id="path1341"
         style="stroke-width:0.264583" />
      <path
         d="m -65.981994,-496.20714 v 1.05753 h 42.332539 v -1.05753 z"
         fill="#f6b26b"
         fill-rule="evenodd"
         id="path1343"
         style="stroke-width:0.264583" />
      <path
         d="m -79.010342,-479.80298 c -2.729442,0 -4.962525,2.2233 -4.962525,4.93898 v 4.93792 c 0,2.71727 2.233083,4.93897 4.962525,4.93897 h 66.737967 c -2.73023,0 -4.96411,-2.2217 -4.96411,-4.93897 v -4.93792 c 0,-2.71648 2.23388,-4.93898 4.96411,-4.93898 z"
         fill="#ffffff"
         fill-rule="evenodd"
         id="path1345"
         style="stroke-width:0.264583" />
      <path
         d="m -134.34027,-481.39048 c -0.44001,0.006 -0.79455,0.3646 -0.79455,0.80381 0,0.44026 0.35454,0.79771 0.79455,0.80301 h 0.0209 c -2.72336,0 -4.95142,2.22673 -4.95142,4.94665 v 4.94559 c 0,2.62625 2.07645,4.78419 4.66937,4.93183 -0.37174,0.127 -0.59663,0.50483 -0.53181,0.89112 0.0648,0.38629 0.39926,0.66966 0.79057,0.66966 8e-4,0 0.002,0 0.002,0 h 120.206545 c 0.44371,0 0.8038,-0.35984 0.8038,-0.8046 0,-0.44344 -0.36009,-0.8038 -0.8038,-0.8038 v 7.9e-4 H -62.54929 c -2.374106,-0.36063 -4.210844,-2.41565 -4.210844,-4.885 v -4.94559 c 0,-2.72071 2.228056,-4.94665 4.950619,-4.94665 h 47.67421 c 0.44053,-0.005 0.79455,-0.36275 0.79455,-0.80301 0,-0.43921 -0.35402,-0.79825 -0.79455,-0.80381 z"
         fill="#6bc29a"
         fill-rule="evenodd"
         id="path1347"
         style="stroke-width:0.264583" />
      <path
         d="m -48.519495,-476.36339 c 0,0.52731 1.83674,0.40666 1.83674,4.58126 v 1.76873 l 2.10449,-2.25107 2.16879,2.25107 v -2.0103 c 0,0 0.23998,-4.33969 -1.75736,-4.33969 z"
         fill="#e06666"
         fill-rule="evenodd"
         id="path1349"
         style="stroke-width:0.264583" />
      <path
         d="m -63.517665,-481.38968 c -2.506133,0 -5.372365,1.28984 -5.372365,6.5188 v 4.95406 c -0.0024,4.20555 2.866232,6.51801 5.372365,6.51801 h 50.16659 c 0.44847,0 0.81412,-0.36195 0.81412,-0.80434 0,-0.44344 -0.36565,-0.80592 -0.81412,-0.80592 h -49.024119 c -2.424906,-0.3167 -4.314296,-2.40003 -4.314296,-4.90775 v -4.95406 c 0,-2.50931 1.891771,-4.59423 4.317471,-4.90934 h 49.020944 c 0.44847,0 0.81412,-0.36248 0.81412,-0.80434 0,-0.44238 -0.36565,-0.80512 -0.81412,-0.80512 z"
         fill="#41966f"
         fill-rule="evenodd"
         id="path1351"
         style="stroke-width:0.264583" />
      <path
         d="m -68.442619,-470.0134 -70.828161,0.0167 c 0,2.66753 2.07645,4.86146 4.66963,5.01227 -0.31486,0.11113 -0.54319,0.41249 -0.54319,0.76782 0.002,0.45059 0.36036,0.81624 0.80407,0.81703 h 71.268692 c -2.505339,0 -5.373422,-2.34553 -5.371041,-6.61379 z"
         fill="#41966f"
         fill-rule="evenodd"
         id="path1353"
         style="stroke-width:0.264583" />
      <path
         d="m -84.035838,-493.8251 c -2.731029,0 -4.964112,2.27277 -4.964112,5.05089 v 1.00992 c 0,2.77812 2.233083,5.0509 4.964112,5.0509 h 66.736383 c -2.72944,0 -4.96332,-2.27278 -4.96332,-5.0509 v -1.00992 c 0,-2.77812 2.23388,-5.05089 4.96332,-5.05089 z"
         fill="#ffffff"
         fill-rule="evenodd"
         id="path1355"
         style="stroke-width:0.264583" />
      <path
         d="m -17.518535,-495.14802 c -0.004,0 -0.008,0 -0.0124,0 H -129.5574 c -7.9e-4,0 -0.002,0 -0.002,0 -0.37677,0 -0.69506,0.27967 -0.74189,0.65246 -0.0463,0.37465 0.19447,0.72443 0.56197,0.81545 -2.48761,0.0593 -4.50479,2.09947 -4.50479,4.59079 v 1.63618 c 0,2.49528 2.02406,4.53787 4.51749,4.59078 -0.37227,0.0857 -0.61859,0.43524 -0.57467,0.81148 0.0429,0.37703 0.36274,0.6604 0.74268,0.6604 8e-4,0 0.002,0 0.002,0 h 112.027235 c 0.003,0 0.007,0 0.0101,0 0.41354,0 0.74983,-0.33417 0.74983,-0.74692 0,-0.41275 -0.33629,-0.74665 -0.74983,-0.74665 -0.003,0 -0.007,0 -0.0101,0 H -62.54294 c -2.309283,-0.24474 -4.126442,-2.20636 -4.126442,-4.57068 v -1.63459 c 0,-2.35506 1.802342,-4.30795 4.09919,-4.56512 h 45.039227 c 0.004,0 0.007,0 0.0109,0 0.41354,0 0.74903,-0.3347 0.74903,-0.74666 0,-0.41275 -0.3347,-0.74692 -0.74745,-0.74692 z"
         fill="#ab99e2"
         fill-rule="evenodd"
         id="path1357"
         style="stroke-width:0.264583" />
      <path
         d="m -65.186657,-495.14802 c -0.414073,8e-4 -0.751152,0.33417 -0.751946,0.74692 7.94e-4,0.12462 0.0336,0.24765 0.09631,0.35666 -1.679046,1.16337 -2.785533,3.08848 -2.785533,5.26441 v 1.00516 c 0,2.17672 1.108075,4.10421 2.787914,5.26759 -0.0635,0.11059 -0.0979,0.23521 -0.09869,0.363 7.94e-4,0.41117 0.337873,0.74534 0.751946,0.74692 h 2.239698 c 0.01429,5.3e-4 0.0291,0.005 0.04472,0.007 h 44.729663 c 0.0151,-0.002 0.0291,-0.006 0.0439,-0.007 h 0.60563 c 0.21325,-0.002 0.41619,-0.0929 0.55668,-0.25162 0.002,0 0.004,0 0.006,-7.9e-4 0.005,-0.006 0.008,-0.014 0.0124,-0.0212 0.0503,-0.059 0.0926,-0.12594 0.1217,-0.19685 0.002,-0.006 0.003,-0.0116 0.005,-0.0172 0.0315,-0.0826 0.0495,-0.17145 0.0503,-0.26088 -0.002,-0.41037 -0.33788,-0.74533 -0.75274,-0.74533 H -62.72418 c -2.294466,-0.26776 -4.090458,-2.21483 -4.090458,-4.56354 v -1.63459 c 0,-2.35506 1.807633,-4.30795 4.111625,-4.56512 h 45.179988 c 0.41486,-0.002 0.75036,-0.3355 0.75194,-0.74825 -0.002,-0.0265 -0.004,-0.0529 -0.009,-0.0794 0,-0.004 0,-0.006 -7.9e-4,-0.01 -0.008,-0.0778 -0.0304,-0.15425 -0.0627,-0.22489 -0.0807,-0.19315 -0.24315,-0.38788 -0.52467,-0.41672 -0.007,-7.9e-4 -0.014,-7.9e-4 -0.0212,-0.002 -0.014,-8e-4 -0.0265,-0.006 -0.0431,-0.006 h -0.0164 c -0.0243,-0.004 -0.0495,-0.006 -0.0736,-0.007 z"
         fill="#103440"
         fill-rule="evenodd"
         fill-opacity="0.133333"
         id="path1359"
         style="stroke-width:0.264583" />
      <path
         d="m -134.2437,-486.15298 c 0.53287,1.87749 2.27674,3.27184 4.34922,3.3155 -0.37095,0.0841 -0.61754,0.42783 -0.57362,0.79771 0.0431,0.3691 0.36328,0.6485 0.74269,0.6485 7.9e-4,0 0.002,0 0.002,0 h 66.914447 l 7.94e-4,-1.49913 c -1.819804,-0.26035 -3.305969,-1.55813 -3.788833,-3.26258 z"
         fill="#103440"
         fill-rule="evenodd"
         fill-opacity="0.133333"
         id="path1361"
         style="stroke-width:0.264583" />
      <path
         d="m -58.935346,-544.10996 c 0.198702,0.1614 0.318029,0.27835 0.361685,0.29872 0,0 -0.120121,-0.17092 -0.361685,-0.29872 z m -3.866092,-1.30968 c -1.003565,0 -2.200275,0.2032 -3.606006,0.75274 -5.260711,2.06004 -7.247467,3.96107 -6.806406,6.62172 0.172508,1.04008 0.623887,1.35679 1.110191,1.35679 0.758032,0 1.601259,-0.771 1.601259,-0.771 0.286808,-0.003 5.228166,-0.29951 7.932472,-4.25265 1.395413,-2.03967 2.414852,-2.53365 3.074459,-2.53365 0.230452,0 0.416454,0.0603 0.560123,0.13573 v 0 c -0.575205,-0.46672 -1.820598,-1.30968 -3.866092,-1.30968 z"
         fill="#41966f"
         fill-rule="evenodd"
         id="path1363"
         style="stroke-width:0.264583" />
      <path
         d="m -79.221744,-547.8001 c -0.407194,0 -1.208352,0.55086 -1.208352,0.55086 0,0 -0.368565,0.30824 0.134673,1.15464 0.549804,0.92843 4.944798,5.08715 6.29285,10.09174 0.448468,1.66846 0.813858,2.22488 1.099873,2.22488 0.573087,0 0.834495,-2.2225 0.834495,-2.2225 -0.03889,-0.19235 -2.444749,-9.06647 -7.040827,-11.78083 -0.03254,-0.0132 -0.07064,-0.0188 -0.112712,-0.0188 z"
         fill="#41966f"
         fill-rule="evenodd"
         id="path1365"
         style="stroke-width:0.264583" />
      <path
         d="m -65.204913,-537.48214 c -2.775479,0 -5.537464,1.38218 -7.771342,3.91662 -2.452158,2.78236 -4.06691,6.72465 -4.489449,10.95957 -0.42254,4.23466 0.381793,8.41561 2.237316,11.62156 1.853936,3.20675 4.607983,5.17684 7.653338,5.47688 0.272256,0.0267 0.543718,0.04 0.815975,0.04 2.775479,0 5.537464,-1.38298 7.771341,-3.91742 2.452949,-2.78315 4.067709,-6.72386 4.489449,-10.95957 0.42254,-4.23387 -0.381,-8.41481 -2.23652,-11.62156 -1.854731,-3.20754 -4.608779,-5.17604 -7.654133,-5.47608 -0.271462,-0.0267 -0.543719,-0.04 -0.815975,-0.04 z"
         fill="#f6b26b"
         fill-rule="evenodd"
         id="path1367"
         style="stroke-width:0.264583" />
      <path
         d="m -78.351,-537.21677 c -0.346869,0 -0.694796,0.022 -1.040871,0.0659 -3.014398,0.38656 -5.690658,2.4347 -7.441935,5.69807 -1.750219,3.26178 -2.431521,7.47025 -1.8923,11.69802 0.53922,4.22805 2.25425,8.12853 4.766204,10.84527 2.224616,2.40374 4.913312,3.70655 7.592748,3.70655 0.346868,0 0.694795,-0.022 1.04087,-0.0667 3.014398,-0.38656 5.691452,-2.43496 7.441936,-5.69807 1.751012,-3.26178 2.43152,-7.46945 1.8923,-11.69723 -0.539221,-4.22804 -2.253457,-8.12932 -4.766204,-10.84606 -2.224617,-2.40374 -4.913313,-3.70576 -7.592748,-3.70576 z"
         fill="#f6b26b"
         fill-rule="evenodd"
         id="path1369"
         style="stroke-width:0.264583" />
      <path
         d="m -71.839605,-538.27589 c -0.02249,0 -0.04445,0 -0.06614,7.9e-4 -1.536436,0.0217 -2.999582,0.80883 -4.065852,2.18863 -1.068123,1.37954 -1.652059,3.23877 -1.624013,5.16864 0.02672,1.92934 0.663575,3.77137 1.769004,5.11995 1.089819,1.3298 2.548202,2.07328 4.061354,2.07328 0.0217,0 0.04366,0 0.06615,0 1.535642,-0.0225 2.997994,-0.80963 4.065852,-2.18943 1.066536,-1.37875 1.650471,-3.23877 1.624013,-5.16705 -0.02805,-1.92934 -0.664369,-3.77137 -1.769798,-5.12075 -1.089819,-1.32979 -2.547408,-2.07406 -4.060561,-2.07406 z"
         fill="#f6b26b"
         fill-rule="evenodd"
         id="path1371"
         style="stroke-width:0.264583" />
      <path
         d="m -100.30665,-512.08214 c -0.0712,0 0.45111,2.72573 0.45111,2.72573 l 2.925763,0.44847 0.519906,-2.80458 c 0,0 -3.825609,-0.36962 -3.896779,-0.36962 z"
         fill="#e0b98f"
         fill-rule="evenodd"
         id="path1373"
         style="stroke-width:0.264583" />
      <path
         d="m -84.307829,-514.19881 -2.840038,0.84984 1.708944,2.06058 1.993635,-0.76571 c 0,0 -0.862541,-2.05978 -0.862541,-2.14471 z"
         fill="#e0b98f"
         fill-rule="evenodd"
         id="path1375"
         style="stroke-width:0.264583" />
      <path
         d="m -94.925823,-545.41964 c -2.893483,0 -4.945856,1.32476 -4.945856,1.32476 l -0.977111,8.87122 c 0,0 0.22278,3.52081 0.28575,5.96477 0.0627,2.44316 -0.49662,12.42642 -0.73739,13.87977 -0.6641,4.0214 1.355726,4.35875 1.355726,4.35875 0,0 0.463285,0.26114 2.332566,0.26114 0.20029,0 0.415925,-0.003 0.648759,-0.009 2.16191,-0.0616 2.17805,-2.59371 2.17805,-2.59371 l 0.215635,-2.38548 0.559594,-11.20828 c 0.431535,1.05145 0.23204,2.40347 0.373327,3.52504 0.154252,1.24302 0.474133,2.4937 0.980017,3.64332 0.736335,1.67401 1.7272,3.06122 2.722033,4.53945 1.01256,1.49701 1.553369,2.52492 2.844006,2.52492 0.356923,0 0.772054,-0.0786 1.270265,-0.24844 1.410758,-0.5424 2.640541,-1.07315 2.375164,-2.41591 -0.158221,-1.07871 -1.305189,-2.09339 -1.558925,-3.25597 -0.263789,-1.34276 0.194734,-2.64054 -0.06906,-3.9833 -0.146579,-0.89773 -0.378619,-1.69889 -0.519112,-2.50613 -0.518319,-2.50481 1.0033,-4.14232 0.490272,-6.55744 -0.765704,-3.57769 -0.847989,-7.19772 -1.12977,-10.80531 -0.134938,-1.7153 -0.580232,-2.04867 -0.580232,-2.04867 0,0 -2.989791,-0.17304 -6.637072,-0.7575 -0.511175,-0.082 -1.004888,-0.11774 -1.47664,-0.11774 z"
         fill="#174859"
         fill-rule="evenodd"
         id="path1377"
         style="stroke-width:0.264583" />
      <path
         d="m -94.733206,-569.76131 c -0.323321,0 -0.661988,0.26008 -0.560388,0.65775 0.03043,0.12065 0.0545,0.25321 0.07408,0.38973 -0.03598,1.00198 -0.395817,1.97036 -0.312209,2.9808 0.0037,0.013 0.0069,0.0281 0.01323,0.0415 0.0053,0.054 0.02884,0.10478 0.06721,0.1442 0.03731,0.0378 0.07567,0.0757 0.114564,0.11271 0.09075,0.11695 0.216958,0.22066 0.366183,0.3138 0.519113,0.39343 1.131888,0.65114 1.747838,0.65114 0.472281,0 0.94615,-0.15161 1.379273,-0.51012 0.505089,-0.4154 0.9906,-0.95647 0.805656,-1.64624 -0.103187,-0.38946 -0.282575,-0.76068 -0.34581,-1.16178 -0.07646,-0.49795 -0.01402,-0.99351 -0.02884,-1.49384 -0.0056,-0.1696 -0.144462,-0.25453 -0.280987,-0.25453 -0.135996,0 -0.268553,0.0841 -0.263261,0.25453 0.0056,0.15531 0.0024,0.31221 -0.0016,0.46831 -0.06244,-0.0212 -0.128588,-0.031 -0.195792,-0.031 -0.229658,0 -0.463815,0.12065 -0.53631,0.33866 -0.114036,0.009 -0.221721,0.0479 -0.31459,0.11298 -0.09446,-0.0704 -0.209285,-0.10372 -0.32385,-0.10372 -0.0852,0 -0.170392,0.0183 -0.248444,0.0529 -0.09049,-0.13414 -0.224631,-0.19156 -0.363802,-0.19156 -0.06324,0 -0.127794,0.0119 -0.189441,0.0341 -0.0164,-0.26167 -0.04842,-0.52308 -0.11483,-0.78369 -0.0672,-0.26221 -0.274108,-0.37677 -0.487891,-0.37677 z"
         fill="#e0b98f"
         fill-rule="evenodd"
         id="path1379"
         style="stroke-width:0.264583" />
      <path
         d="m -98.767573,-509.96548 c -0.708819,0 -1.168665,0.52626 -1.231635,0.86122 -0.197112,1.03796 -3.040592,1.56898 -3.125792,2.41776 -0.041,0.40005 -0.12541,0.93822 -0.12541,0.93822 -0.0378,0.36486 2.33971,0.54451 3.783279,0.54451 0.0095,0 0.01905,0 0.02778,0 1.390915,-0.002 2.251869,-0.13653 2.46724,-0.21114 0.147372,-0.0508 0.42201,-0.0619 0.444764,-0.28707 0,0 0.07885,-0.93028 0.06853,-1.09749 -0.0087,-0.12939 -0.157691,-0.32147 -0.180446,-0.53261 -0.04498,-0.40481 0.229394,-0.68633 0.144198,-1.51395 -0.02117,-0.20399 -0.348456,-0.18838 -0.536839,-0.26273 -0.349515,-0.13732 -0.669661,-0.53049 -1.034786,-0.69506 -0.252941,-0.11377 -0.488685,-0.16166 -0.700881,-0.16166 z"
         fill="#103440"
         fill-rule="evenodd"
         id="path1381"
         style="stroke-width:0.264583" />
      <path
         d="m -95.945527,-568.4376 c -0.23839,0 -0.518319,0.1106 -0.806186,0.46302 -0.782637,0.95488 -0.377825,1.22476 -0.544247,1.48431 -0.165365,0.25956 -0.535517,0.2839 -0.7112,0.72576 -0.177271,0.44132 -0.124619,0.9144 -0.112978,1.09537 0.01111,0.18071 -1.961092,1.26683 -1.961092,1.26683 0,0 -1.15438,1.19512 -1.10887,2.45004 0.0455,1.25518 -0.5797,4.35477 -0.99615,5.87719 -0.41619,1.52241 -2.16033,3.12764 -1.39409,5.49433 0.76464,2.36538 1.88674,4.39764 1.99337,4.4622 0.10662,0.0648 1.261,0.74533 1.261,0.74533 0,0 -0.16854,0.33364 -0.26035,0.86916 -0.0423,0.245 0.24395,0.47334 0.44133,0.51223 0,0 0.0511,0.0476 0.360888,0.0476 0.2667,0 0.723635,-0.0352 1.50495,-0.16457 0.703262,-0.11695 1.812925,-0.18706 2.964127,-0.18706 1.617927,0 3.320256,0.13943 4.101306,0.48736 0.491596,0.21907 1.242219,0.29924 2.012156,0.29924 1.32768,0 2.714096,-0.23865 2.940844,-0.41777 0.358246,-0.28231 0.07144,-1.75499 0.07144,-1.75499 0.718343,-0.3593 0.951177,-0.61409 1.568185,-1.17924 0.494242,-0.45297 1.026583,-0.79455 1.625071,-1.14988 0.497946,-0.29554 1.303337,-0.58791 1.667139,-1.0549 0.265907,-0.3429 0.250825,-0.81941 0.385763,-1.21232 0.14261,-0.41142 0.672835,-0.93212 0.545042,-1.38588 -0.0063,-0.0236 -1.224228,-3.55653 -1.353609,-4.3905 -0.336285,-2.16879 -0.763852,-3.33507 -1.460764,-5.41655 -0.366448,-1.09538 -0.775759,-2.28865 -0.941123,-3.33031 -0.06668,-0.41698 -0.136525,-0.91678 -0.572559,-1.14512 -0.345016,-0.17939 -0.835818,-0.0796 -1.244335,-0.17939 -3.260725,-0.79348 -3.282685,-1.5404 -3.282685,-1.5404 0,0 -0.04551,-1.12633 -0.9906,-1.12633 -0.315119,0 -0.69559,-0.35639 -0.939271,-0.35639 -0.08387,0 -0.152136,0.0429 -0.194469,0.15822 0,0 0.1778,2.67017 -1.944952,3.08715 -0.221192,0.0437 -0.441325,0.0669 -0.653256,0.0669 -0.955146,0 -1.725877,-0.46778 -1.502569,-1.62057 0.07937,-0.40931 0.233098,-1.65206 0.233098,-1.65206 0,0 -0.289454,-0.32808 -0.700352,-0.32808 z"
         fill="#ab99e2"
         fill-rule="evenodd"
         id="path1383"
         style="stroke-width:0.264583" />
      <path
         d="m -87.979717,-566.32173 c -0.14896,0 -0.376766,0.0606 -0.514085,0.38841 -0.218281,0.51885 -2.094442,4.34234 -0.871802,9.81128 0,0 0.0024,0.17992 0.332316,0.30083 h -7.93e-4 c 0,0 0.03122,0.36301 0.06482,0.63288 0.03334,0.26988 0.316441,0.33814 0.316441,0.33814 0.02805,1.31234 0.866511,3.95526 0.927365,4.15211 0.04366,0.13811 0.135466,0.25056 0.263525,0.25056 0.06006,0 0.127,-0.0241 0.200289,-0.0815 0.184944,-0.1442 0.556154,-0.15902 0.698765,-0.15902 0.03651,0 0.05847,0.002 0.05847,0.002 -0.728398,-1.27873 -1.110456,-3.82799 -1.159669,-4.17301 0.32385,-0.0783 0.220663,-0.36221 0.220663,-0.36221 l -0.123825,-0.59955 c 0.276754,-0.12091 0.238654,-0.30083 0.238654,-0.30083 0,0 -1.290638,-6.27936 0.716491,-9.13183 l 0.379942,0.0992 c 0,0 0.141817,-0.0325 0.141817,-0.22648 0,-0.19368 -0.0164,-0.33814 -0.202671,-0.42175 -0.187325,-0.0847 -1.54014,-0.49795 -1.54014,-0.49795 0,0 -0.06006,-0.0209 -0.146579,-0.0209 z"
         fill="#103440"
         fill-rule="evenodd"
         id="path1385"
         style="stroke-width:0.264583" />
      <path
         d="m -98.10585,-564.99881 c -0.03307,0 -0.0762,0.0124 -0.129381,0.0489 -0.159279,0.11086 -0.912019,0.65431 -0.912019,0.65431 0,0 -0.251619,0.17674 -0.173831,0.52097 0.0762,0.34581 -0.01614,2.00951 -0.05768,2.12645 -0.04233,0.11801 -0.547953,1.66 -0.682099,2.94217 -0.24315,2.33362 -0.13679,2.2352 -0.16695,3.16151 l 0.0632,0.0164 c -0.0386,0.22013 -0.21246,1.26682 -0.0632,1.59702 0.1233,0.27279 0.21934,0.3093 0.261674,0.3093 0.01535,0 0.02302,-0.005 0.02302,-0.005 l 0.259557,-1.77377 0.06932,0.0188 c 0.161396,-0.55298 -0.01164,-3.24062 0.960438,-5.82163 0.418571,-1.11178 0.497152,-2.69028 0.365654,-3.21813 l 0.290777,-0.22939 -0.01376,-0.29924 c 0,0 -0.02857,-0.0489 -0.09472,-0.0489 z"
         fill="#103440"
         fill-rule="evenodd"
         id="path1387"
         style="stroke-width:0.264583" />
      <path
         d="m -85.904854,-511.87233 c 0.0058,0.006 0.01058,0.0127 0.01693,0.0188 h -0.0024 c -0.0048,-0.006 -0.01217,-0.0109 -0.01931,-0.0132 7.94e-4,-0.002 0.0032,-0.003 0.0048,-0.006 z m 3.573727,1.45997 c 0,0.003 7.93e-4,0.007 0.0032,0.0103 h -0.0024 c -7.93e-4,-0.003 -7.93e-4,-0.007 -7.93e-4,-0.0103 z m -1.164432,-2.72812 c -0.131762,0 -0.170391,0.16034 -0.15187,0.26988 0.06112,0.35771 0.280987,0.73871 -0.02328,0.94826 -0.322791,-0.33416 -0.732366,-0.65801 -1.189302,-0.65801 -0.06032,0 -0.121973,0.006 -0.183885,0.018 0,0 -7.94e-4,0 -7.94e-4,0 -0.02328,0 -0.554037,0.14023 -0.752475,0.72072 -0.01932,-0.0328 -0.0418,-0.0643 -0.06747,-0.0947 0.01058,-0.0236 -0.0079,-0.0492 -0.03043,-0.0492 -0.0074,0 -0.01535,0.003 -0.02249,0.0109 -0.248973,0.26061 -0.315648,0.58525 -0.290777,0.94588 0.0095,0.14632 0.07382,0.26538 0.144462,0.38021 0.03466,0.0939 0.06826,0.18865 0.100542,0.28257 0.09551,0.42175 0.05609,0.80434 -0.03863,1.17581 -0.03519,0.0759 -0.43524,1.42081 -0.4699,1.63592 -0.06721,0.42016 -0.146844,1.28323 0.570177,1.88648 0.207433,0.17515 0.486039,0.20029 0.758295,0.20029 0.05371,0 0.106628,-0.002 0.159015,-0.002 0.785283,-0.0148 1.483254,-0.33629 1.922463,-1.04458 0.254529,-0.40825 0.382322,-0.77205 0.389466,-1.2618 7.94e-4,-0.11033 0.0079,-0.21986 0.0209,-0.32781 0.0071,-0.0447 0.01693,-0.0879 0.02805,-0.13071 0.05054,-0.1987 0.118004,-0.39052 0.183886,-0.57891 0.02328,-0.0526 0.04498,-0.10265 0.07223,-0.15742 0.04577,-0.0852 0.114829,-0.20717 0.1397,-0.30348 0.105304,-0.40375 0.0717,-0.72602 -0.0217,-1.02579 -7.94e-4,-0.004 -7.94e-4,-0.008 -0.0024,-0.0132 -7.94e-4,-0.003 -0.0032,-0.006 -0.0048,-0.01 -0.130969,-0.40826 -0.371739,-0.77761 -0.532341,-1.25254 0.0087,-0.18389 -0.0299,-0.38021 -0.03942,-0.54531 -0.01852,-0.31988 -0.130969,-0.55933 -0.332317,-0.79719 -0.01217,-0.0127 -0.02593,-0.0243 -0.04101,-0.0312 -0.07805,-0.0939 -0.169598,-0.18468 -0.286809,-0.19103 -0.0024,0 -0.0048,0 -0.0071,0 z"
         fill="#103440"
         fill-rule="evenodd"
         id="path1389"
         style="stroke-width:0.264583" />
      <path
         d="m -96.61704,-577.69802 c 0,0 -1.074737,0.59108 -1.093523,1.4314 -0.02143,0.83873 0.998273,2.53656 0.998273,2.53656 0.416984,-1.19724 0.728927,-2.06031 0.780786,-2.6924 0.05159,-0.63288 -0.685536,-1.27556 -0.685536,-1.27556 z"
         fill="#e06666"
         fill-rule="evenodd"
         id="path1391"
         style="stroke-width:0.264583" />
      <path
         d="m -92.820798,-578.49256 c -0.32041,0 -0.639233,0.0127 -0.9525,0.0243 -0.556948,0.006 -1.403615,0.30348 -1.871662,0.30348 -0.04895,0 -0.09393,-0.003 -0.134144,-0.0103 l -0.199496,0.13017 c -0.75909,0.75327 -0.983985,1.38192 -1.049602,2.51275 -0.09551,1.63116 0.244739,1.57348 0.189442,2.93899 -0.03228,0.82339 -0.89244,4.47649 2.5654,4.91385 0.183091,0.0228 0.357452,0.0339 0.523875,0.0339 2.299229,0 2.950368,-2.14021 4.021931,-3.98939 1.168664,-2.01559 1.52056,-5.8539 -1.313127,-6.65374 -0.575205,-0.16139 -1.179513,-0.20399 -1.780117,-0.20399 z"
         fill="#e0b98f"
         fill-rule="evenodd"
         id="path1393"
         style="stroke-width:0.264583" />
      <path
         d="m -91.176677,-577.69802 c -1.415786,0 -1.688042,0.70062 -1.688042,0.70062 0,0 -0.633148,1.10543 -0.316971,1.87484 0.171186,0.4191 0.491332,0.77205 0.491332,0.77205 l -0.157692,1.25122 c 0,0 0.342106,0.48789 0.518583,0.48789 0.04551,0 0.0799,-0.0317 0.09499,-0.11324 0.02037,-0.1069 0.381264,-1.2954 0.930539,-1.2954 0.0172,0 0.03545,0.002 0.05345,0.004 0.746125,0.10398 0.827088,0.77655 0.528108,1.651 -0.251089,0.73448 -0.731308,0.83688 -0.928423,1.12078 -0.144991,0.20716 0.267759,2.27621 0.402696,2.27621 0.0069,0 0.01323,-0.005 0.01799,-0.0156 0.461433,-0.94324 1.50495,-2.13255 1.84494,-2.82919 0.338137,-0.69665 1.032404,-3.15807 1.032404,-3.15807 0,0 0.674158,-1.9976 -1.072621,-2.46221 -0.721783,-0.19236 -1.2954,-0.26459 -1.751277,-0.26459 z"
         fill="#e06666"
         fill-rule="evenodd"
         id="path1395"
         style="stroke-width:0.264583" />
      <path
         d="m -97.10255,-579.81548 c -0.408252,0 -0.62865,2.47121 0.817033,3.30333 0.258498,0.14843 1.177661,0.40084 2.097617,0.40084 0.50165,0 1.004094,-0.0751 1.398852,-0.28416 0.0016,0 3.05726,-0.18944 3.178969,-0.9488 0,0 0.08017,-0.8427 -1.395148,-1.5494 -0.788194,-0.37703 -1.57189,-0.51699 -2.2479,-0.51699 -0.59055,0 -1.099079,0.10609 -1.458913,0.25373 -0.116152,0.0474 -0.219075,0.0675 -0.315648,0.0675 -0.542925,0 -0.875506,-0.64161 -2.067983,-0.72522 -0.0024,-8e-4 -0.0045,-8e-4 -0.0069,-8e-4 z"
         fill="#e06666"
         fill-rule="evenodd"
         id="path1397"
         style="stroke-width:0.264583" />
      <path
         d="m -38.733355,-490.65089 c -0.0894,0 -0.26114,3.70337 -0.26114,3.70337 l 2.99561,-0.19024 c 0,0 0.97155,-3.15515 0.97235,-3.24855 0,0 -3.6158,-0.23072 -3.70523,-0.26379 -7.9e-4,-7.9e-4 -7.9e-4,-7.9e-4 -0.002,-7.9e-4 z"
         fill="#e0b98f"
         fill-rule="evenodd"
         id="path1399"
         style="stroke-width:0.264583" />
      <path
         d="m -36.075085,-488.00427 c -0.20478,0 -0.44741,0.0656 -0.73422,0.22622 -0.31776,0.1778 -0.8628,0.80724 -1.52135,0.80724 -0.22093,0 -0.45376,-0.0704 -0.69559,-0.25294 -0.0402,-0.0302 -0.0812,-0.0437 -0.12144,-0.0437 -0.15373,0 -0.29925,0.19552 -0.3347,0.38761 -0.18627,0.98452 -0.23733,1.1094 -0.33073,1.59015 -0.0495,0.25082 -0.17701,0.40587 -0.20029,0.56065 -0.0302,0.19923 -0.0394,1.56977 -0.0394,1.56977 0.004,0.27279 0.56197,0.31856 0.72972,0.39608 0.24421,0.11166 1.23587,0.36381 2.85856,0.5125 0.47148,0.0434 1.12553,0.0656 1.82192,0.0656 1.78488,0 3.84942,-0.14711 3.84624,-0.46726 0,0 -10e-4,-0.72681 -0.007,-1.21232 -0.0124,-1.02711 -4.17407,-1.73487 -4.29631,-3.00249 -0.0394,-0.40957 -0.29607,-1.13718 -0.97552,-1.13718 z"
         fill="#174859"
         fill-rule="evenodd"
         id="path1401"
         style="stroke-width:0.264583" />
      <path
         d="m -49.065065,-549.91677 c -2.4339,0 -5.27526,2.53154 -4.78023,5.78882 0.25189,1.65153 1.4351,6.53838 3.93991,6.62781 0.32332,0.0116 0.59241,0.018 0.87233,0.018 0.20479,0 0.41699,-0.003 0.66093,-0.0111 1.25439,-0.0392 3.25464,-4.02934 3.50176,-6.6622 0.31962,-3.42504 -1.38218,-5.51101 -3.87746,-5.74649 -0.10452,-0.01 -0.21061,-0.0148 -0.31724,-0.0148 z"
         fill="#e0b98f"
         fill-rule="evenodd"
         id="path1403"
         style="stroke-width:0.264583" />
      <path
         d="m -44.784105,-545.68423 c 0,0 -1.03426,1.09591 -1.29037,1.38774 -0.25427,0.29078 -0.0265,1.59703 -0.17701,2.21536 -0.15055,0.61833 0.63182,1.15305 0.63182,1.15305 0,0 0.12965,0.006 0.28496,0.006 0.19632,0 0.43312,-0.01 0.50377,-0.054 0.12567,-0.0804 0.0153,-0.322 0.0153,-0.322 l -0.17224,-1.52612 0.43709,-0.86386 z"
         fill="#e0b98f"
         fill-rule="evenodd"
         id="path1405"
         style="stroke-width:0.264583" />
      <path
         d="m -45.609875,-540.92093 c 0,0 -1.87748,0.58896 -1.91214,0.6514 -0.0347,0.0622 -1.04616,0.78211 -1.41155,1.04272 -0.36592,0.25982 -0.53949,1.31287 -0.59108,1.40997 -0.0532,0.0982 0.56938,0.38523 0.56938,0.38523 0,0 1.22105,0.18362 1.3888,0.20929 0.0185,0.003 0.0355,0.005 0.0524,0.005 0.13229,0 0.19605,-0.0894 0.254,-0.22807 0.0653,-0.1532 0.4228,-1.24725 0.4228,-1.24725 0,0 1.10887,-1.20385 1.12422,-1.23031 0.0169,-0.0273 0.10318,-0.99774 0.10318,-0.99774 z"
         fill="#e0b98f"
         fill-rule="evenodd"
         id="path1407"
         style="stroke-width:0.264583" />
      <path
         d="m -50.711035,-515.47437 c 0.0151,0 0.0423,0.036 0.0815,0.12409 -0.003,0.0656 -0.002,0.13044 0.005,0.19553 -0.0931,-0.16272 -0.11747,-0.31962 -0.0862,-0.31962 z m 0.25188,0.703 0.0227,0.0243 c 0.0172,0.0672 0.0352,0.13838 0.054,0.21484 v 0 c -0.0204,-0.0804 -0.0492,-0.15928 -0.0767,-0.23918 z m -0.70141,-4.9829 c -0.40825,0.5297 -1.00277,0.86175 -1.63169,0.89773 -0.79375,0.41725 -1.50098,1.15782 -1.96559,1.99523 -0.67415,1.21655 -1.16919,2.54873 -1.09405,3.95816 0.136,2.56329 1.10755,4.85008 3.24591,6.54871 0.75697,0.61171 1.96929,0.81862 3.38905,0.81862 2.9845,0 6.88525,-0.91626 9.3935,-0.91626 0.86731,0 1.56819,0.10928 2.00713,0.40455 0,0 -0.82603,2.35559 -0.55854,7.86845 l -0.87921,9.01038 c 0.0852,0.46805 0.72205,0.63447 1.49146,0.63447 1.26709,0 2.89719,-0.45085 3.03239,-0.75327 0,0 2.25504,-6.36958 2.80961,-10.47617 0.32782,-2.42729 1.65735,-7.72451 1.30625,-9.466 -0.36301,-1.79996 -1.57295,-2.8329 -3.22025,-3.60098 -2.8829,-1.34382 -12.67301,-2.00925 -13.84696,-2.38125 -0.0659,-0.0204 -0.15955,-0.0296 -0.27305,-0.0296 -0.73449,0 -2.29103,0.37967 -2.40745,0.37967 -0.004,0 -0.006,-7.9e-4 -0.006,-0.002 -0.0109,-0.007 -0.0225,-0.0124 -0.0328,-0.0196 -0.0264,-0.0172 -0.0767,-0.0688 -0.0767,-0.0741 v 0 c 0.0127,0.008 0.0267,0.0164 0.0392,0.0241 -0.0124,-0.0124 0.0643,-0.65008 0.11113,-0.8038 0.40984,-1.35864 0.0392,-2.8956 -0.83291,-4.01744 z"
         fill="#41966f"
         fill-rule="evenodd"
         id="path1409"
         style="stroke-width:0.264583" />
      <path
         d="m -52.837755,-542.77381 c -0.30295,0 -0.48207,0.22437 -0.42492,0.77205 0.11879,1.13216 -0.84561,4.20847 -1.25095,5.14853 -0.11325,0.26247 -0.19738,0.5416 -0.30057,0.80724 -0.0333,0.0844 -0.0572,0.14764 -0.0738,0.19368 v 0 c -0.018,0.036 -0.0402,0.0788 -0.0664,0.13044 -0.13018,0.25559 -0.25876,0.50879 -0.40137,0.75882 -0.058,0.1024 -0.0929,0.17119 -0.11192,0.21564 v 0 c -0.90488,1.05251 -1.25386,2.40982 -0.56145,3.70999 0.5424,1.01891 1.77827,1.75657 2.98212,1.75657 0.49239,0 0.97949,-0.12277 1.41182,-0.40085 1.94707,-1.25015 2.85115,-3.99521 2.7178,-5.58456 -0.0799,-0.95885 -0.0823,-1.57295 -0.1823,-2.18096 -0.19976,-1.21735 -0.56621,-2.05105 -1.143,-3.08557 -0.62653,-1.12289 -1.9177,-2.24102 -2.59503,-2.24102 z"
         fill="#e0b98f"
         fill-rule="evenodd"
         id="path1411"
         style="stroke-width:0.264583" />
      <path
         d="m -53.961175,-538.01052 c -0.16219,0 -0.16907,0.14923 -0.16907,0.14923 0,0 -0.47467,1.42425 -0.45932,1.48352 0.35137,1.34276 6.59924,3.12896 6.59924,3.12896 0,0 -0.33497,-2.19895 -0.39767,-2.71595 -0.0617,-0.51699 -0.45614,-0.55827 -0.45614,-0.55827 0,0 -4.85458,-1.44224 -5.04984,-1.48034 -0.0254,-0.005 -0.0471,-0.007 -0.0672,-0.007 z"
         fill="#e06666"
         fill-rule="evenodd"
         id="path1413"
         style="stroke-width:0.264583" />
      <path
         d="m -54.287675,-536.68839 c -0.65617,0 -1.4822,1.46182 -1.87299,2.42728 -1.619246,4.00606 -1.119183,10.10021 -0.0997,16.49942 0.51408,3.23083 -0.35481,5.55599 0.35718,6.43281 0.022,0.0273 0.0548,0.0397 0.0968,0.0397 0.52414,0 2.59424,-1.94998 5.96636,-2.61064 3.54303,-0.69586 5.53667,-0.59981 5.54222,-1.09829 0.0116,-1.03108 -0.83476,-1.42901 -0.78396,-2.51539 0.0905,-1.92035 0.64267,-4.65349 -0.19341,-10.24229 -0.50932,-3.40016 -2.62572,-7.23212 -2.62572,-7.23212 l -6.37514,-1.69968 c -0.004,-7.9e-4 -0.008,-7.9e-4 -0.0116,-7.9e-4 z"
         fill="#e06666"
         fill-rule="evenodd"
         id="path1415"
         style="stroke-width:0.264583" />
      <path
         d="m -52.663135,-535.89464 c -0.0439,0 -0.0889,7.9e-4 -0.13361,0.002 -2.35453,1.45045 -3.92483,4.07247 -3.28216,7.00643 0.46355,2.12329 1.16893,3.63141 1.69598,5.74146 0.29316,1.1774 1.02923,2.84507 3.66421,4.25424 1.16179,0.62124 6.20528,1.68698 8.3484,2.71251 -0.0228,0.12541 1.78885,0.81994 1.86426,0.83105 0.21299,0.0304 0.41089,0.0445 0.59399,0.0445 1.67005,0 2.18228,-1.14406 2.67573,-1.21655 0.0511,-0.007 0.10213,-0.0109 0.1524,-0.0109 1.20094,0 2.07698,2.06613 2.70483,2.06613 0.032,0 0.0643,-0.006 0.095,-0.0172 0.58049,-0.21695 -0.48472,-2.41723 -1.19883,-3.40598 -0.41169,-0.56885 -0.89403,-0.69135 -1.26577,-0.69135 -0.14446,0 -0.27172,0.018 -0.37226,0.036 -0.014,0.002 -0.0355,0.004 -0.0622,0.004 -0.57415,0 -3.92457,-0.52361 -3.97881,-0.54213 -1.75895,-0.60642 -4.00499,-1.86743 -4.40028,-2.277 -3.24908,-3.36947 -3.82985,-2.2061 -3.98383,-2.91306 -0.0863,-0.74031 0.35824,-2.04894 -0.4744,-4.15502 -0.0786,-0.19817 -0.2921,-1.11892 -0.30956,-1.261 -0.0384,-0.35825 -0.0535,-0.7202 -0.0455,-1.08083 0.005,-0.29263 0.0148,-0.58526 0.0431,-0.87709 0.007,-0.0794 0.007,-0.15902 0,-0.23945 0.0315,-0.20055 0.12726,-0.42439 0.17065,-0.59928 0.16087,-0.6649 0.21273,-1.21417 0.04,-1.88225 -0.28998,-1.11574 -1.29936,-1.52849 -2.54132,-1.52849 z"
         fill="#e0b98f"
         fill-rule="evenodd"
         id="path1417"
         style="stroke-width:0.264583" />
      <path
         d="m -51.960405,-536.6876 c -0.18547,0 -0.37412,0.0132 -0.56435,0.0413 -1.63248,0.24157 -2.39316,0.97341 -3.11282,1.90871 -2.141542,2.77945 -1.08347,8.52593 -0.49425,10.61111 0,0 1.86532,0.93187 4.19312,0.93187 1.32133,0 2.79083,-0.30004 4.15316,-1.24064 0.32438,-0.2241 -0.42148,-7.63217 -1.26391,-10.33515 -0.37809,-1.211 -1.57506,-1.91717 -2.91095,-1.91717 z"
         fill="#e06666"
         fill-rule="evenodd"
         id="path1419"
         style="stroke-width:0.264583" />
      <path
         d="m -44.839145,-515.25635 c -0.22965,0 -0.42862,0.16298 -0.46011,0.38603 l -0.0119,0.0841 c -0.0326,0.24342 0.14658,0.46699 0.40005,0.4998 l 13.28764,1.67058 c 0.0206,0.003 0.0413,0.004 0.0611,0.004 0.22965,0 0.42941,-0.16299 0.4609,-0.38683 l 0.0119,-0.0849 c 0.0318,-0.24341 -0.14579,-0.4654 -0.40085,-0.49821 l -13.28764,-1.67058 c -0.0206,-0.003 -0.0413,-0.004 -0.0611,-0.004 z"
         fill="#ab99e2"
         fill-rule="evenodd"
         id="path1421"
         style="stroke-width:0.264583" />
      <path
         d="m -23.518755,-523.98839 c -0.0913,0 -0.18071,0.0397 -0.24288,0.11535 l -8.50927,10.44575 c -0.10901,0.13415 -0.0889,0.33153 0.0452,0.44133 l 0.0466,0.0399 c 0.0577,0.0468 0.1278,0.0701 0.19712,0.0701 0.0918,0 0.18203,-0.0397 0.245,-0.11536 l 8.50847,-10.44575 c 0.10901,-0.13494 0.0881,-0.33232 -0.0452,-0.44212 l -0.0474,-0.0384 c -0.0585,-0.0476 -0.12859,-0.0709 -0.19765,-0.0709 z"
         fill="#ab99e2"
         fill-rule="evenodd"
         id="path1423"
         style="stroke-width:0.264583" />
      <path
         d="m -48.860805,-551.23968 c -0.87948,0 -1.76821,0.24897 -2.50402,0.73554 -0.13203,-0.023 -0.26326,-0.0357 -0.39343,-0.0357 -0.56701,0 -1.10781,0.23839 -1.55681,0.8472 -1.02526,1.38906 -0.97129,3.23135 -0.67892,5.02708 0.0511,0.40455 0.11562,0.81703 0.18759,1.23825 0.0246,0.60007 0.17198,1.21126 0.26987,1.80075 0.10028,0.60405 0.30083,0.62786 0.86016,0.75803 0.22596,0.0527 0.59479,0.21141 0.9017,0.21141 0.15055,0 0.28628,-0.0384 0.38365,-0.14605 0.31379,-0.35031 0.32544,-1.04035 0.43339,-1.48405 0.009,-0.0389 0.003,-0.0796 -0.0153,-0.11483 -0.0193,-0.10848 -0.0894,-0.1995 -0.1868,-0.24501 -0.0122,-0.0278 -0.0286,-0.0542 -0.0492,-0.078 -0.37888,-0.39661 -0.24924,-1.93807 0.47678,-1.93807 0.0577,0 0.11933,0.01 0.18494,0.0312 0.39423,0.12674 0.39185,0.6096 0.62019,0.87127 0.1389,0.15875 0.27543,0.21696 0.4183,0.21696 0.22278,0 0.45826,-0.14446 0.72893,-0.27596 0.55324,-0.26882 1.1811,-0.44291 1.13083,-1.15067 -0.0407,-0.58711 -0.19579,-1.26603 -0.4027,-1.8923 v 0 c 0.67205,0.24421 1.43114,0.46275 2.14075,0.46275 0.15742,0 0.31168,-0.0111 0.46222,-0.0344 0.0246,0.002 0.0484,0.003 0.0725,0.003 0.17039,0 0.31538,-0.0495 0.48207,-0.16351 0.0394,-0.0175 0.0825,-0.0246 0.12197,-0.0463 0.13891,-0.0741 0.26909,-0.16431 0.38947,-0.26802 0.36883,-0.23945 0.72681,-0.56648 0.89482,-0.94377 0.25929,-0.57944 -0.0354,-1.03241 -0.31379,-1.52083 -0.0286,-0.0503 -0.0796,-0.0701 -0.13362,-0.0781 -0.0315,-0.0233 -0.0685,-0.0392 -0.10715,-0.0392 -0.0101,0 -0.0201,0.002 -0.0302,0.003 -0.2368,0.0534 -0.46117,0.0788 -0.67945,0.0788 -0.26167,0 -0.51382,-0.0365 -0.76676,-0.10609 -0.13203,-0.18019 -0.26617,-0.35719 -0.42122,-0.51938 -0.5408,-0.56806 -1.19803,-0.93583 -1.95421,-1.10173 -0.31538,-0.0693 -0.64029,-0.10371 -0.96652,-0.10371 z"
         fill="#174859"
         fill-rule="evenodd"
         id="path1425"
         style="stroke-width:0.264583" />
      <path
         d="m -16.176565,-498.05923 c 0,0 -2.28891,2.79321 -2.36696,2.84745 -0.078,0.055 2.82998,2.17964 2.82998,2.17964 l 1.58988,-2.51619 c 0,0 -1.97882,-2.45878 -2.0529,-2.5109 z"
         fill="#e0b98f"
         fill-rule="evenodd"
         id="path1427"
         style="stroke-width:0.264583" />
      <path
         d="m -13.820445,-495.67718 c -0.26565,0 -0.57018,0.13361 -0.90382,0.49503 -0.29051,0.31565 -0.68633,1.30995 -1.53935,1.30995 -0.127,0 -0.26326,-0.0222 -0.41142,-0.0712 -0.0241,-0.008 -0.0474,-0.0119 -0.0693,-0.0119 -0.18601,0 -0.28972,0.26723 -0.26168,0.48551 0.12621,0.9951 0.11695,1.1303 0.17516,1.61661 0.0296,0.2532 -0.0442,0.44238 -0.0185,0.59637 0.032,0.1995 0.44794,1.50283 0.44794,1.50283 0.0445,0.13124 0.20637,0.1614 0.3802,0.1614 0.14394,0 0.29607,-0.0206 0.39423,-0.0206 0.0169,0 0.0317,0 0.0458,0.002 0.032,0.004 0.0741,0.006 0.1278,0.006 0.39264,0 1.35731,-0.10107 2.76569,-0.43418 1.65708,-0.39396 5.4424798,-1.77958 5.2998698,-2.20027 0,0 -0.22437,-0.69056 -0.37942,-1.14935 -0.3302,-0.97208 -4.5317798,-0.31009 -5.0395198,-1.47426 -0.14022,-0.322 -0.50482,-0.81306 -1.01361,-0.81306 z"
         fill="#174859"
         fill-rule="evenodd"
         id="path1429"
         style="stroke-width:0.264583" />
      <path
         d="m -30.887395,-512.87589 c -0.69136,0 -1.36657,0.17145 -2.0402,0.46196 -0.26459,1.03849 -0.51065,2.06137 -0.37174,3.25517 0.14525,1.25201 2.50587,4.32726 2.6744,4.32726 0.002,0 0.002,-8e-4 0.004,-8e-4 0,0 1.46156,2.00343 6.12087,4.894 l 6.87361,5.80046 c 0.0714,0.0317 0.14446,0.0474 0.21881,0.0474 1.11072,0 2.49052,-3.3864 2.23203,-3.80947 0,0 -3.93912,-5.43586 -6.98527,-8.20446 -1.80049,-1.63619 -5.38295,-5.70971 -7.00484,-6.40583 -0.58976,-0.25321 -1.16099,-0.36565 -1.72138,-0.36565 z"
         fill="#41966f"
         fill-rule="evenodd"
         id="path1431"
         style="stroke-width:0.264583" />
    </g>
  </g>
</svg>
